<svg width="60" height="60" xmlns="http://www.w3.org/2000/svg">
  <defs>
    <pattern id="hexagons" width="60" height="60" patternUnits="userSpaceOnUse">
      <g fill="none" stroke="currentColor" stroke-width="0.5" opacity="0.2">
        <path d="M15 10 L15 20 L25 25 L35 20 L35 10 L25 5 Z"/>
        <path d="M15 30 L15 40 L25 45 L35 40 L35 30 L25 25 Z"/>
        <path d="M35 20 L35 30 L45 35 L55 30 L55 20 L45 15 Z"/>
        <path d="M-5 20 L-5 30 L5 35 L15 30 L15 20 L5 15 Z"/>
        <path d="M15 50 L15 60 L25 65 L35 60 L35 50 L25 45 Z"/>
        <path d="M35 40 L35 50 L45 55 L55 50 L55 40 L45 35 Z"/>
        <path d="M-5 40 L-5 50 L5 55 L15 50 L15 40 L5 35 Z"/>
        <path d="M35 0 L35 10 L45 15 L55 10 L55 0 L45 -5 Z"/>
        <path d="M-5 0 L-5 10 L5 15 L15 10 L15 0 L5 -5 Z"/>
      </g>
    </pattern>
  </defs>
  <rect width="100%" height="100%" fill="url(#hexagons)"/>
</svg> 