<?xml version="1.0" encoding="utf-8"?>
<!-- Generator: Adobe Illustrator 25.1.0, SVG Export Plug-In . SVG Version: 6.00 Build 0)  -->
<svg version="1.1" id="Layer_1" xmlns="http://www.w3.org/2000/svg" xmlns:xlink="http://www.w3.org/1999/xlink" x="0px" y="0px"
	 viewBox="0 0 489.8 167.1" style="enable-background:new 0 0 489.8 167.1;" xml:space="preserve">
<style type="text/css">
	.st0{fill:#F78219;}
	.st1{fill:#1F3B9B;}
</style>
<path class="st0" d="M167,78.8c-1.3-0.2-3.8-0.4-3.8-1.2c0-1.3,2.9-1.4,3.5-1.4c1.8,0,3.6,0.9,4,1.6l0.8,1.3l6.5-3l-0.8-1.6
	c-1.3-2.6-3.7-4.5-6.6-5.1v-3.1l0,0V43.5l-7.5,1.8v21.1l0,0v3.1c-4.7,1-7.6,4.1-7.6,8.1c0,7.2,6.7,8,10.7,8.4
	c3.1,0.4,4.2,1.1,4.2,1.6c0,1.8-3.3,1.9-3.9,1.9c-2.1,0-4.4-1.1-4.9-2.4l-0.7-1.6l-7,3l0.7,1.6c1.5,3.4,4.7,5.9,8.4,6.4v3.3h7.6
	v-3.5c4.6-0.9,7.7-4.3,7.7-8.7C178.4,80.2,171.3,79.3,167,78.8z"/>
<path class="st1" d="M32.7,56.8v29.8c0,2.9,2,3.4,4.1,4.1c11.6,4.2,31.7,12.5,54.7,12.5S133.1,95,145,90.8c2.1-0.7,4.1-1.2,4.1-4.1
	V57L91.5,73.8L32.7,56.8z"/>
<polygon class="st1" points="91.5,16.3 91.4,16.3 0,40.6 32.7,50.1 32.7,50.1 91.5,67 149.1,50.2 182,40.6 "/>
<path d="M14.5,166.9L3.8,152.6v14.4H0.4v-20.1h3.3l10.7,14.4v-14.4h3.3v20.1H14.5z"/>
<path d="M28.2,149.9v5.4H38v3h-9.8v5.5h11.3v3H24.8v-20h14.3v3L28.2,149.9z"/>
<path d="M61.9,166.9h-4l-5.4-7.6l-5.4,7.6h-4l7.3-10.3l-6.8-9.8h3.9l4.9,7l4.9-7h3.9l-6.7,9.6L61.9,166.9z"/>
<path d="M74.2,149.9v17h-3.4v-17h-6.3v-3h16.1v3H74.2z"/>
<path d="M110.9,157.1v7.4c-2.3,1.7-5,2.6-7.8,2.6c-1.9,0-3.7-0.4-5.3-1.3c-3.2-1.8-5.2-5.2-5.2-8.8c0-1.8,0.5-3.6,1.4-5.1
	c0.9-1.5,2.3-2.8,3.9-3.6c1.7-0.9,3.6-1.4,5.5-1.4c1.4,0,2.8,0.3,4.2,0.8c1.3,0.5,2.5,1.2,3.5,2.1l-1.9,2.5
	c-1.6-1.5-3.6-2.3-5.8-2.3c-1.3,0-2.6,0.3-3.7,0.9c-1.1,0.6-2,1.5-2.7,2.6c-0.7,1.1-1,2.3-1,3.6c0,1.3,0.3,2.5,1,3.6
	c0.6,1.1,1.6,2,2.7,2.6c1.1,0.6,2.4,1,3.7,0.9c0.8,0,1.6-0.1,2.3-0.4c0.8-0.2,1.6-0.6,2.3-1v-5.6H110.9z"/>
<path d="M120.8,149.9v5.4h9.8v3h-9.8v5.5h11.3v3h-14.7v-20h14.3v3L120.8,149.9z"/>
<path d="M152,166.9l-10.7-14.4v14.4h-3.4v-20.1h3.3l10.8,14.4v-14.4h3.4v20.1H152z"/>
<path d="M185.3,148.7c1.4,1.3,2.2,3.2,2.1,5.1c0.1,2-0.6,3.9-2.1,5.3c-1.6,1.3-3.7,2-5.9,1.9h-4.6v6h-3.4v-20.1h8
	C181.6,146.8,183.7,147.4,185.3,148.7z M174.9,157.9h4.5c1.3,0.1,2.6-0.3,3.6-1c0.9-0.8,1.3-1.9,1.2-3c0.1-1.1-0.4-2.2-1.2-2.9
	c-1.1-0.7-2.3-1.1-3.6-1h-4.5V157.9z"/>
<path d="M195.8,149.9v5.4h9.8v3h-9.8v5.5h11.3v3h-14.7v-20h14.3v3L195.8,149.9z"/>
<path d="M222,160.9c-0.2,0-0.5,0-0.9,0h-4.7v6H213v-20h8.1c2.1-0.1,4.3,0.5,6,1.8c1.5,1.3,2.2,3.1,2.1,5.1c0.1,1.4-0.3,2.8-1.1,4.1
	c-0.7,1.1-1.8,2-3.1,2.4l4.5,6.7h-3.9L222,160.9z M224.7,156.9c0.9-0.7,1.3-1.9,1.3-3c0.1-1.1-0.4-2.2-1.3-2.9
	c-1.1-0.7-2.3-1.1-3.6-1h-4.7v8h4.8C222.4,158,223.7,157.6,224.7,156.9L224.7,156.9z"/>
<path d="M245.7,147.3c1.2,0.3,2.3,0.8,3.3,1.5l-1.4,3c-1-0.6-2-1.1-3.1-1.4c-0.9-0.3-1.8-0.4-2.8-0.5c-0.8,0-1.7,0.1-2.4,0.6
	c-0.6,0.3-0.9,0.9-0.9,1.6c0,0.6,0.2,1.1,0.6,1.5c0.4,0.4,0.9,0.8,1.4,1c0.8,0.3,1.6,0.6,2.4,0.8c1.1,0.3,2.2,0.7,3.3,1.2
	c0.9,0.4,1.6,1,2.2,1.8c0.6,0.9,0.9,1.9,0.9,3c0,1.1-0.3,2.2-1,3.1c-0.7,0.9-1.6,1.6-2.7,2c-1.2,0.5-2.6,0.7-3.9,0.7
	c-1.5,0-3-0.3-4.4-0.9c-1.4-0.5-2.7-1.3-3.8-2.3l1.5-2.9c1,0.9,2.1,1.6,3.3,2.2c1.1,0.5,2.3,0.7,3.5,0.8c1,0.1,1.9-0.2,2.8-0.6
	c0.6-0.4,1-1.1,1-1.8c0-0.6-0.2-1.1-0.6-1.5c-0.4-0.4-0.9-0.7-1.5-0.9c-0.6-0.2-1.4-0.5-2.4-0.8c-1.1-0.3-2.2-0.7-3.3-1.2
	c-0.8-0.4-1.6-1-2.1-1.7c-0.6-0.9-1-1.9-0.9-3c0-1.1,0.3-2.1,0.9-3c0.6-0.9,1.5-1.6,2.6-2c1.2-0.5,2.5-0.7,3.8-0.7
	C243.2,146.6,244.5,146.9,245.7,147.3z"/>
<path d="M269.3,148.1c1.6,0.8,2.9,2.1,3.8,3.6c1.9,3.2,1.9,7.1,0,10.3c-0.9,1.5-2.3,2.8-3.8,3.7c-3.4,1.8-7.4,1.8-10.8,0
	c-1.6-0.9-2.9-2.1-3.8-3.7c-0.9-1.6-1.4-3.3-1.4-5.2c0-1.8,0.5-3.6,1.4-5.1c0.9-1.5,2.3-2.8,3.8-3.6
	C261.9,146.4,265.9,146.4,269.3,148.1L269.3,148.1z M260.3,150.8c-1.1,0.6-2,1.5-2.6,2.6c-1.3,2.2-1.3,4.9,0,7.1
	c0.6,1.1,1.6,2,2.6,2.6c3.4,2,7.8,0.8,9.8-2.6c0.6-1.1,1-2.3,1-3.6c0-1.3-0.3-2.5-1-3.6c-0.6-1.1-1.5-1.9-2.5-2.6
	c-1.1-0.6-2.3-1-3.6-0.9C262.6,149.8,261.4,150.2,260.3,150.8L260.3,150.8z"/>
<path d="M293.9,166.9l-10.7-14.4v14.4h-3.4v-20.1h3.3l10.8,14.4v-14.4h3.3v20.1H293.9z"/>
<path d="M307.1,162.4l-1.9,4.5h-3.5l8.9-20.1h3.5l8.8,20.1h-3.6l-1.9-4.5H307.1z M312.1,150.5l-3.7,8.9h7.6L312.1,150.5z"/>
<path d="M339.2,163.9v3.1h-12.1v-20.1h3.4v17H339.2z"/>
<path d="M356.6,149.9v5.8h9.1v3h-9.1v8.2h-3.4v-20.1h13.5v3L356.6,149.9z"/>
<path d="M371.4,166.9v-20.1h3.4v20.1H371.4z"/>
<path d="M395.9,166.9l-10.7-14.4v14.4h-3.4v-20.1h3.3l10.8,14.4v-14.4h3.3v20.1H395.9z"/>
<path d="M409,162.4l-1.9,4.5h-3.5l8.8-20.1h3.5l8.8,20.1H421l-1.9-4.5H409z M414.1,150.5l-3.8,8.9h7.6L414.1,150.5z"/>
<path d="M443.1,166.9l-10.7-14.4v14.4H429v-20.1h3.4l10.8,14.4v-14.4h3.3v20.1H443.1z"/>
<path d="M466.5,147.6c1.3,0.5,2.5,1.3,3.5,2.3l-2,2.5c-0.7-0.8-1.6-1.4-2.6-1.9c-2.1-1-4.6-0.9-6.6,0.2c-1.1,0.6-2,1.5-2.6,2.6
	c-2,3.4-0.8,7.7,2.5,9.7c0,0,0,0,0.1,0c1.1,0.6,2.3,1,3.6,0.9c1,0,2.1-0.2,3-0.6c1-0.4,1.9-1,2.6-1.8l2,2.2c-1,1-2.3,1.8-3.6,2.4
	c-1.3,0.6-2.7,0.9-4.2,0.9c-1.8,0-3.7-0.4-5.3-1.3c-1.6-0.9-2.9-2.1-3.8-3.7c-0.9-1.6-1.4-3.4-1.4-5.2c0-1.8,0.5-3.6,1.4-5.1
	c0.9-1.5,2.2-2.8,3.8-3.6C459.9,146.6,463.4,146.4,466.5,147.6L466.5,147.6z"/>
<path d="M478.5,149.9v5.4h9.8v3h-9.8v5.5h11.3v3h-14.7v-20h14.3v3L478.5,149.9z"/>
<path class="st1" d="M244.9,27.1c-7.7,0-14.1,2.2-19.1,6.6v-4.9h-17.4v73.3h17.4V63.5c0-12.6,6-19.5,16.8-19.5
	c9,0,13.9,5.2,13.9,14.5v43.7H274V57.8C273.9,39.2,262.5,27.1,244.9,27.1z"/>
<path class="st1" d="M339.4,28.9v6.7c-6.2-5.6-14.3-8.7-22.6-8.5c-20.9,0-37.3,16.7-37.3,38s16.4,38.1,37.3,38.1
	c8.4,0.2,16.5-2.9,22.6-8.6v1.9c0,11.2-7.4,17.9-19.8,17.9c-13,0-17.3-5.2-19.5-9.8l-1.3-2.7l-15.3,8.6l1.3,2.4
	c6,11.6,18.3,18,34.6,18c9.8,0,18.9-3,25.6-8.6c7.6-6.3,11.7-15.2,11.7-25.9V28.9H339.4z M339.4,65.1c0.3,11.7-9.1,21.5-20.8,21.7
	c-11.7,0.3-21.5-9.1-21.7-20.8c0-0.3,0-0.6,0-0.9c0-12,9.1-21.1,21.2-21.1S339.4,53.1,339.4,65.1z"/>
<path class="st0" d="M408,27.1c-8.4-0.2-16.5,2.9-22.7,8.5v-6.8h-17.4v100.3h17.4V95.4c6.2,5.6,14.4,8.7,22.7,8.5
	c20.4,0,37-17.2,37-38.4S428.4,27.1,408,27.1z M427.6,65.5c0,12.2-9.1,21.4-21.1,21.4s-21.2-9.2-21.2-21.4s9.1-21.4,21.2-21.4
	S427.6,53.3,427.6,65.5L427.6,65.5z"/>
<path class="st0" d="M486.4,17.1l3,0.2v-17l-2.6-0.2c-10.4-0.7-18.5,1.6-24.2,6.9c-5.3,5-8.2,12.5-8.4,21.8h-10.8v17h10.8v56.3h17.4
	V45.9h17.8v-17h-17.8c0.1-4.3,1.2-7.4,3.2-9.3C477.1,17.5,481,16.7,486.4,17.1z"/>
</svg>
